<svg width="1593" height="245" viewBox="0 0 1593 245" fill="none" xmlns="http://www.w3.org/2000/svg">
<path d="M301.42 45.5409C301.42 25.1902 284.972 4.282 261.833 4.282H185.17L172.625 144.785H212.769L217.229 94.3267H222.526L246.501 144.785H293.056L267.409 90.9814C289.711 84.2908 301.42 67.0066 301.42 45.5409ZM248.452 34.6686C255.422 34.6686 261.276 41.9168 261.276 48.0499C261.276 54.1829 256.258 64.7764 245.107 64.7764H220.017L222.805 34.9474H248.452V34.6686Z" fill="white"/>
<path d="M293.056 145.064H246.501L222.526 94.6055H242.877C252.076 94.6055 260.161 93.4904 267.13 91.2602L293.056 145.064Z" fill="white"/>
<path d="M326.47 4.282H366.622L354.039 144.824H313.886L326.47 4.282Z" fill="white"/>
<path d="M480.073 4.282H529.138L469.759 78.7152L463.904 144.785H423.482L429.336 78.7152H428.778L429.057 78.4364L381.665 4.282H428.778L451.638 45.8196L480.073 4.282Z" fill="white"/>
<path d="M528.859 4.282L469.48 78.7152L451.359 45.8196L479.795 4.282C480.073 4.282 528.859 4.282 528.859 4.282Z" fill="white"/>
<path d="M560.439 4.282L505.241 144.785H547.894L556.815 119.974H600.025L604.486 144.785H646.302L616.194 4.282H560.439ZM567.408 89.8663L585.25 39.6866L594.45 89.8663H567.408Z" fill="white"/>
<path d="M600.025 119.974H556.815L567.408 89.8663H594.45L600.025 119.974Z" fill="white"/>
<path d="M880.421 2.00719L867.876 142.51H827.732L835.817 50.793L810.169 142.51H780.062L770.026 50.5142L761.662 142.51H721.519L734.063 2.00719H774.486H796.509L805.151 90.9368L829.962 2.00719H880.421Z" fill="white"/>
<path d="M810.169 142.51H780.062L770.026 50.5142L774.486 2.00719H796.509L810.169 142.51Z" fill="white"/>
<path d="M975.129 0C934.149 0 898.187 32.338 894.562 72.203C894.284 74.1545 894.284 75.8271 894.284 77.7786C894.005 115.135 923.276 144.406 962.584 144.406C1003.56 144.406 1039.53 112.068 1043.15 72.203C1046.5 32.338 1016.11 0 975.129 0ZM1001.89 72.203C999.94 95.3415 983.213 114.298 964.814 114.298C947.53 114.298 934.985 97.8504 934.985 76.6634C934.985 76.3847 934.985 75.8271 934.985 75.5483C934.985 75.2696 934.985 75.2696 934.985 74.9908C934.985 74.1545 934.985 73.0394 935.264 71.9243C937.215 48.7858 953.942 29.8291 972.341 29.8291C990.74 29.8291 1003.84 49.0646 1001.89 72.203Z" fill="white"/>
<path d="M934.985 76.9422L894.284 77.7786V77.4998C897.071 48.7858 925.785 18.3992 972.341 30.1078C953.942 30.1078 937.494 49.0646 935.264 72.203C935.264 73.3181 935.264 74.1545 934.985 75.2696C934.985 75.5484 934.985 75.5484 934.985 75.8271C934.985 76.1059 934.985 76.3847 934.985 76.9422Z" fill="white"/>
<path d="M1179.03 2.00719L1176.24 32.115H1136.37L1126.62 142.51H1086.19L1095.95 32.115H1055.81L1058.6 2.00719H1179.03Z" fill="white"/>
<path d="M1095.95 32.115L1136.09 32.115L1126.34 142.51L1086.19 142.51L1095.95 32.115Z" fill="white"/>
<path d="M1473.77 43.2661C1473.77 22.9154 1457.32 2.00719 1434.18 2.00719H1357.52L1344.97 142.51H1385.12L1389.58 92.0519H1394.88L1418.85 142.51H1465.41L1439.76 88.7066C1462.06 82.016 1473.77 64.7318 1473.77 43.2661ZM1420.8 32.3938C1427.77 32.3938 1433.63 39.642 1433.63 45.7751C1433.63 51.9081 1428.61 62.5016 1417.46 62.5016H1392.37L1395.15 32.6726H1420.8V32.3938Z" fill="white"/>
<path d="M1465.41 142.789H1418.85L1394.88 92.3307H1415.23C1424.43 92.3307 1432.51 91.2156 1439.48 88.9854L1465.41 142.789Z" fill="white"/>
<path d="M1537.77 41.8164C1537.77 59.1005 1591.57 55.4765 1591.57 96.7353C1591.57 141.34 1538.88 144.685 1526.89 144.685C1520.48 144.685 1499.02 142.733 1485.63 137.158L1488.98 98.6868C1502.64 107.05 1516.02 113.462 1527.45 113.462C1539.16 113.462 1543.34 107.886 1543.34 103.426C1543.34 81.6814 1491.21 92.2749 1491.21 47.1132C1491.21 11.4298 1530.8 0 1551.43 0C1571.22 0 1580.14 2.23021 1592.13 5.29675L1588.78 43.7679C1588.78 43.7679 1567.59 31.2229 1554.49 31.2229C1544.46 31.2229 1537.77 35.4046 1537.77 41.8164Z" fill="white"/>
<path d="M1582.65 72.4818H1499.85C1499.85 72.4818 1473.37 31.2229 1540.83 31.2229L1554.49 31.2229C1544.46 31.2229 1537.77 35.4046 1537.77 41.8164C1537.77 54.6401 1567.32 56.034 1582.65 72.4818Z" fill="white"/>
<path d="M158.902 4L146.357 144.503H106.214L114.298 52.7858L88.6508 144.503H58.543L48.507 52.507L40.1437 144.503H0L12.5449 4H52.9675H74.9908L83.6328 92.9296L108.444 4H158.902Z" fill="white"/>
<path d="M88.6508 144.503H58.543L48.507 52.507L52.9675 4H74.9908L88.6508 144.503Z" fill="white"/>
<path d="M1263.85 0C1222.87 0 1186.9 32.338 1183.28 72.203C1183 74.1545 1183 75.8271 1183 77.7786C1182.72 115.135 1211.99 144.406 1251.3 144.406C1292.28 144.406 1328.24 112.068 1331.87 72.203C1335.21 32.338 1304.83 0 1263.85 0ZM1290.61 72.203C1288.66 95.3415 1271.93 114.298 1253.53 114.298C1236.25 114.298 1223.7 97.8504 1223.7 76.6634C1223.7 76.3847 1223.7 75.8271 1223.7 75.5483C1223.7 75.2696 1223.7 75.2696 1223.7 74.9908C1223.7 74.1545 1223.7 73.0394 1223.98 71.9243C1225.93 48.7858 1242.66 29.8291 1261.06 29.8291C1279.46 29.8291 1292.56 49.0646 1290.61 72.203Z" fill="white"/>
<path d="M1223.7 76.9422L1183 77.7786V77.4998C1185.79 48.7858 1214.5 18.3992 1261.06 30.1078C1242.66 30.1078 1226.21 49.0646 1223.98 72.203C1223.98 73.3181 1223.98 74.1545 1223.7 75.2696C1223.7 75.5484 1223.7 75.5484 1223.7 75.8271C1223.7 76.1059 1223.7 76.3847 1223.7 76.9422Z" fill="white"/>
</svg>
