<svg width="9767" height="3674" viewBox="0 0 9767 3674" fill="none" xmlns="http://www.w3.org/2000/svg">
<path d="M2415.96 892.737C2413.62 892.456 2410.7 892.176 2407.21 891.899C2396.1 891.018 2379.65 890.207 2358.38 889.476C2315.85 888.014 2254.31 886.877 2178.32 886.112C2026.36 884.581 1816.72 884.539 1586.09 886.348C1355.44 888.158 1145.73 887.499 993.669 884.979C917.648 883.719 855.994 881.994 813.324 879.876C792.005 878.818 775.339 877.659 763.963 876.4C758.305 875.773 753.792 875.106 750.623 874.375C749.08 874.019 747.581 873.588 746.367 873.018C745.775 872.74 744.965 872.298 744.233 871.605C743.499 870.91 742.396 869.513 742.396 867.451C742.396 865.515 743.372 864.161 744.048 863.455C744.726 862.747 745.488 862.273 746.061 861.963C747.225 861.334 748.665 860.832 750.142 860.405C753.171 859.53 757.475 858.662 762.855 857.787C773.675 856.028 789.519 854.137 809.775 852.145C850.321 848.157 908.899 843.73 981.122 839.14C1125.58 829.959 1324.81 820.115 1543.93 811.823L1544.12 816.82L1543.93 811.823C1982.15 795.265 2438.57 773.607 2558.22 763.722L2558.63 768.705L2558.22 763.722C2666.65 754.779 2720.69 750.071 2776.58 728.787C2832.63 707.445 2890.66 669.396 3006.6 592.917L3225.92 448.239L2312.24 436.468C2054.1 433.143 1864.12 429.869 1745.1 426.065C1685.62 424.164 1643.73 422.127 1619.89 419.873C1613.92 419.309 1609.02 418.724 1605.21 418.114C1601.58 417.53 1598.47 416.853 1596.42 415.939C1595.87 415.693 1595.21 415.349 1594.59 414.863C1594 414.408 1593.08 413.548 1592.57 412.168C1591.98 410.564 1592.19 408.924 1592.89 407.615C1593.49 406.494 1594.33 405.793 1594.88 405.403C1595.98 404.626 1597.32 404.113 1598.47 403.742C1599.72 403.339 1601.22 402.963 1602.92 402.603C1616.18 399.794 1647.85 396.781 1697.76 393.444C1747.84 390.094 1816.68 386.397 1904.6 382.278C2080.45 374.042 2332.72 364.118 2664.15 351.927C3018.03 338.901 3208.04 331.13 3320.83 320.377C3377.21 315.002 3414.06 308.902 3442.33 301.101C3470.49 293.329 3490.28 283.831 3512.54 271.444C3736.19 146.978 4063.5 46.8475 4365.01 10.5541C4365.01 10.5541 4365.01 10.5541 4365.01 10.554L4365.61 15.5182C4411.73 9.95908 4837.65 8.32953 5312.09 11.8759C6202.24 18.5612 6346.52 31.9797 6581.27 130.079C6701.08 180.135 6681.65 196.812 6545.47 160.821C6421.35 128.018 4765.43 119.488 4733.44 151.501L2415.96 892.737ZM2415.96 892.737L2384.87 931.537L2384.66 931.802L2384.48 932.094L2349.57 990.377C2349.54 990.384 2349.51 990.391 2349.48 990.399C2348.11 990.759 2345.93 991.302 2342.8 992.012C2336.54 993.431 2326.46 995.513 2311.33 998.129C2281.06 1003.36 2230.61 1010.72 2150.06 1019.2C1988.95 1036.14 1707.52 1057.52 1226.45 1075.19C1025.44 1082.57 831.92 1091.42 682.048 1099.75C607.115 1103.91 543.075 1107.94 494.461 1111.58C446.002 1115.22 412.52 1118.49 398.976 1121.19L398.974 1121.19C397.183 1121.55 395.56 1121.95 394.284 1122.46C393.669 1122.7 392.857 1123.07 392.106 1123.64C391.459 1124.14 389.973 1125.46 389.81 1127.76C389.636 1130.21 391.081 1131.78 391.819 1132.41C392.594 1133.07 393.445 1133.48 394.04 1133.72C395.287 1134.24 396.864 1134.64 398.543 1134.99C405.306 1136.36 418.364 1137.64 436.867 1138.85C474.087 1141.28 534.626 1143.52 614.353 1145.45C773.845 1149.33 1010.4 1152.02 1291.46 1152.75L2271.75 1155.3L2238.97 1248.24C2229.26 1275.74 2221.4 1301.79 2216.58 1321.63C2214.17 1331.53 2212.49 1340.01 2211.72 1346.4C2211.34 1349.58 2211.16 1352.42 2211.28 1354.73C2211.34 1355.89 2211.49 1357.07 2211.79 1358.17C2212.07 1359.21 2212.62 1360.63 2213.8 1361.8C2216.17 1364.16 2219.12 1363.54 2220.45 1363.04C2221.82 1362.52 2223.07 1361.61 2224.09 1360.77C2226.2 1359.02 2228.73 1356.29 2231.55 1352.91C2237.25 1346.08 2244.81 1335.75 2253.66 1322.78C2271.39 1296.8 2294.58 1259.83 2318.97 1218.11C2396.07 1086.28 2456.58 1013.89 2508.61 973.526C2560.38 933.367 2604 924.705 2648.14 921.052C2736.98 913.7 2823.94 923.459 2904.52 949.815C2944.27 962.819 2975.71 971.176 2998.25 975.358C3009.5 977.445 3018.7 978.524 3025.69 978.575C3029.18 978.601 3032.28 978.373 3034.88 977.814C3037.39 977.276 3040 976.316 3041.92 974.443C3044.13 972.287 3044.92 969.422 3044.38 966.514C3043.89 963.955 3042.44 961.598 3040.74 959.529C3037.31 955.342 3031.41 950.578 3023.41 945.303C3007.28 934.661 2981.15 921.006 2944.64 904.859L2840.05 858.597L2995.26 745.453C3039.76 713.014 3084.19 683.508 3117.51 662.107C3134.17 651.408 3148.04 642.74 3157.75 636.748C3162.28 633.947 3165.91 631.731 3168.48 630.166L3195.9 681.33L3195.96 681.453L3196.04 681.572L3200.3 678.969C3196.04 681.572 3196.04 681.573 3196.04 681.574L3196.04 681.577L3196.05 681.589L3196.07 681.63L3196.17 681.786L3196.33 682.043L3196.53 682.38C3196.86 682.898 3197.33 683.654 3197.94 684.618C3199.17 686.547 3200.95 689.312 3203.19 692.674C3207.68 699.395 3214.02 708.526 3221.44 718.157C3228.85 727.777 3237.39 737.965 3246.28 746.764C3255.11 755.503 3264.56 763.158 3273.83 767.384L3273.83 767.385C3295.63 777.315 3314.67 784.521 3330.04 789.066C3345.2 793.549 3357.4 795.634 3365.25 794.777C3368.99 794.368 3373.35 793.118 3375.61 789.369C3378.03 785.35 3376.66 780.904 3374.74 777.538C3372.72 773.997 3369.27 770.093 3364.63 765.861C3359.94 761.578 3353.79 756.747 3346.13 751.382C3317.11 731.042 3293.59 684.676 3287.63 633.438L3282.66 634.016L3287.63 633.437C3284.68 608.197 3284.72 589.977 3290.27 574.051C3295.78 558.241 3306.97 544.037 3327.74 527.435C3348.57 510.782 3378.6 492.053 3421.28 467.047C3439.84 456.171 3460.74 444.139 3484.26 430.598L3494.87 424.492C3522.72 408.454 3554.05 390.378 3589.24 369.755C3818.1 255.092 4039.54 184.133 4234.36 162.845C4351.89 150.014 4418.61 152.407 4478.87 203.594C4509.24 229.398 4538.23 267.835 4571.04 323.782C4603.83 379.706 4640.25 452.785 4685.58 547.634L4833.92 858L4358.29 847.069C4185.97 843.102 4097.76 845.9 4052.56 849.718C4029.98 851.625 4017.93 853.801 4011.41 855.593C4008.15 856.486 4006.06 857.341 4004.67 858.148C4003.96 858.559 4003.34 859.01 4002.82 859.527C4002.56 859.79 4002.31 860.081 4002.09 860.404C4001.98 860.565 4001.87 860.735 4001.78 860.913C4001.73 861.002 4001.69 861.093 4001.64 861.185C4001.62 861.231 4001.6 861.278 4001.58 861.325L4001.55 861.396C4001.54 861.432 4001.52 861.468 4006.18 863.281L4001.52 861.468L3999.3 867.186L4005.35 868.211C4070.33 879.225 4313.53 909.069 4547.87 936.141C4665.08 949.682 4780.14 962.537 4869.69 972.007C4959.03 981.455 5023.42 987.587 5038.91 987.587C5039.16 987.587 5039.34 987.6 5039.48 987.617C5039.51 987.856 5039.52 988.241 5039.45 988.821C5039.09 992.042 5036.88 997.569 5032.25 1005.29C5023.17 1020.43 5006.3 1041.64 4983.71 1065.17L4901.14 1151.22L4906.98 1159.15L5098.67 1063.6C5347.53 939.536 5485.96 894.392 5699.87 867.26C5931.59 837.877 6300.33 885.127 6556.41 977.132C6566.69 980.826 6574.72 983.085 6580.64 984.003C6583.58 984.459 6586.25 984.625 6588.53 984.355C6590.7 984.098 6593.35 983.343 6595.18 981.144C6597.18 978.727 6597.17 975.852 6596.6 973.666C6596.06 971.556 6594.88 969.482 6593.52 967.562C6590.75 963.67 6586.27 959.118 6580.59 954.177C6557.82 934.356 6511.93 904.957 6459.78 880.465C6437.96 870.218 6421.64 862.484 6410.46 856.77C6407.15 855.079 6404.33 853.584 6401.97 852.269C6410.01 852.844 6421.91 854.293 6437.66 856.308C6477.36 861.385 6596.1 871.505 6701.52 878.837C6946.32 895.809 7242.58 967.002 7504.96 1071.98C7564.05 1095.63 7611.17 1113.92 7647 1126.99C7682.71 1140.02 7707.5 1147.97 7721.78 1150.78C7725.37 1151.49 7728.48 1151.91 7731.04 1151.96C7733.32 1152.01 7736.22 1151.82 7738.46 1150.3C7739.78 1149.4 7740.88 1148.03 7741.31 1146.24C7741.72 1144.56 7741.44 1143.02 7741.03 1141.85C7740.28 1139.64 7738.65 1137.5 7736.89 1135.56C7729.74 1127.7 7712.63 1115.09 7687.06 1098.11C7632.72 1062.02 7532.45 1014.8 7420.1 969.839C7307.66 924.844 7182.69 881.957 7078.74 854.612C6933.9 816.52 6637.77 790.142 6326.17 779.81C6014.45 769.474 5686.49 775.173 5477.79 801.46C5469.24 802.536 5460.88 803.593 5452.7 804.627C5361.76 816.122 5292.91 824.826 5238.01 826.554C5178.26 828.435 5135.77 822.006 5099.9 802.362C5063.99 782.697 5034.06 749.435 5000.2 696.235C4969.11 647.403 4935.02 582.303 4890.04 496.384C4885.99 488.647 4881.85 480.741 4877.62 472.662C4833.86 389.15 4796.29 311.079 4771.02 252.592C4758.38 223.33 4748.86 199.071 4743.18 181.524C4740.33 172.725 4738.5 165.788 4737.7 160.828C4737.3 158.332 4737.19 156.552 4737.27 155.386C4737.28 155.211 4737.29 155.063 4737.31 154.941L2415.96 892.737ZM397.804 1124.46C397.805 1124.46 397.816 1124.46 397.836 1124.47C397.814 1124.46 397.803 1124.46 397.804 1124.46ZM397.829 1131.81C397.829 1131.81 397.835 1131.81 397.848 1131.8C397.835 1131.81 397.829 1131.81 397.829 1131.81ZM1600.46 406.787C1600.46 406.788 1600.46 406.789 1600.46 406.79C1600.45 406.783 1600.45 406.782 1600.46 406.787ZM7001.39 708.041L7001.38 708.042C6995.92 710.154 6991.34 712.42 6988.57 715.028C6987.16 716.356 6985.66 718.285 6985.36 720.84C6985.02 723.627 6986.24 725.915 6987.76 727.514C6989.19 729.023 6991.12 730.18 6993.15 731.121C6995.23 732.089 6997.75 732.977 7000.65 733.81C7006.44 735.476 7014.17 737.036 7023.86 738.531C7062.55 744.501 7134.89 749.776 7247.87 755.512C7778.26 782.38 8353.71 887.295 8713.95 1022.61C8768.24 1043.01 8805.67 1054.38 8827.6 1058.3C8833.1 1059.28 8837.77 1059.82 8841.57 1059.88C8845.2 1059.94 8848.7 1059.6 8851.38 1058.24C8852.81 1057.51 8854.25 1056.38 8855.17 1054.65C8856.11 1052.88 8856.23 1051.02 8855.94 1049.35C8855.4 1046.35 8853.41 1043.52 8851.22 1041.06C8846.64 1035.94 8838.54 1029.62 8827.52 1022.35C8816.4 1015.02 8801.99 1006.53 8784.5 997.096C8749.53 978.221 8702.08 955.47 8643.74 930.591C8604.36 913.794 8574.62 900.973 8553.36 891.137C8542.73 886.218 8534.29 882.078 8527.86 878.583C8521.35 875.045 8517.2 872.326 8514.92 870.293C8514.83 870.215 8514.75 870.139 8514.67 870.065C8515.37 869.829 8516.26 869.583 8517.37 869.338C8525.06 867.643 8539.09 866.877 8559.07 866.194C8827.3 857.019 9041.45 905.634 9235.83 1019.56C9293.56 1053.38 9408.13 1153.95 9490.18 1243.06C9527.06 1283.11 9554.84 1313.24 9574.92 1334.26C9584.96 1344.77 9593.13 1353.04 9599.56 1359.17C9605.9 1365.19 9610.88 1369.43 9614.46 1371.56C9615.4 1372.11 9616.38 1372.61 9617.39 1372.96C9618.34 1373.28 9619.68 1373.6 9621.18 1373.38C9622.9 1373.11 9624.48 1372.17 9625.49 1370.61C9626.37 1369.26 9626.59 1367.83 9626.64 1366.82C9626.72 1364.83 9626.22 1362.56 9625.57 1360.39C9624.88 1358.09 9623.87 1355.36 9622.6 1352.28C9617.54 1340.02 9607.65 1320.37 9594.58 1294.49C9480.5 1068.78 9225.9 883.017 8934.84 812.32C8902.35 804.417 8840.11 797.613 8766.3 792.948C8692.35 788.274 8606.4 785.725 8526.27 786.421C8366.34 787.834 8171.12 777.548 8092.51 763.685C8013.25 749.706 7899.73 738.162 7840.06 738.066C7755.42 737.924 7696.06 715.307 7543.1 623.334C7377.8 523.935 7272.91 461.654 7209.34 425.697C7177.59 407.736 7156 396.262 7142.3 390.014C7135.53 386.927 7130.33 384.946 7126.66 384.193C7124.95 383.843 7122.77 383.573 7120.76 384.215C7119.62 384.578 7118.35 385.292 7117.41 386.588C7116.48 387.879 7116.2 389.288 7116.2 390.446C7116.2 391.937 7116.8 393.112 7117.08 393.626C7117.44 394.283 7117.88 394.909 7118.32 395.466C7119.2 396.593 7120.4 397.892 7121.82 399.31C7124.68 402.171 7128.81 405.906 7134.01 410.377C7144.44 419.337 7159.47 431.495 7177.95 445.961C7214.92 474.905 7265.89 513.22 7321.93 553.932C7377.91 594.607 7428.78 632.774 7465.64 661.491C7484.08 675.855 7498.97 687.824 7509.24 696.548C7513.69 700.331 7517.22 703.46 7519.77 705.886C7517.17 706.157 7513.87 706.388 7509.89 706.57C7498.18 707.105 7481.14 707.196 7460 706.853C7417.76 706.169 7359.43 703.759 7295.23 699.785C7230.84 695.787 7165.75 694.687 7112.71 696.132C7086.2 696.854 7062.65 698.214 7043.67 700.176C7024.86 702.12 7010.06 704.698 7001.39 708.041ZM5277.92 1311.22L5274.57 1307.51L5277.92 1311.21C5355.27 1241.22 5478.23 1205.61 5608.24 1205.27C5738.17 1204.93 5874.25 1239.84 5977.38 1309.82C6005.36 1328.81 6026.69 1340.85 6041.25 1346.66C6048.4 1349.51 6054.53 1351.12 6059.21 1350.9C6061.61 1350.78 6064.2 1350.16 6066.27 1348.38C6068.47 1346.49 6069.36 1343.9 6069.43 1341.37C6069.55 1336.85 6067.12 1331.52 6063.67 1326.06C6060.06 1320.33 6054.72 1313.51 6047.72 1305.74C6033.72 1290.18 6012.75 1270.43 5984.86 1247.43L5981.68 1251.29L5984.86 1247.43C5845.93 1132.92 5636.59 1092.59 5458.86 1145.94C5416.9 1158.53 5358.33 1192.9 5310.43 1228.46C5286.43 1246.27 5264.9 1264.54 5249.32 1280.73C5241.53 1288.82 5235.12 1296.5 5230.63 1303.43C5226.24 1310.21 5223.23 1316.94 5223.23 1322.99C5223.23 1327.87 5225.11 1332.44 5229.88 1334.52C5233.97 1336.32 5238.87 1335.61 5243.42 1334.09C5252.79 1330.96 5264.98 1322.91 5277.92 1311.22ZM8307.18 1518.12L8307.25 1528.11L8978.18 1534.15L8978.25 1534.15L8978.32 1534.15L9639.11 1522.05C9639.35 1522.05 9639.61 1522.08 9639.83 1522.13C9673.9 1530.14 9697 1547.09 9712.15 1569.74C9727.39 1592.52 9734.82 1621.46 9736.73 1653.73C9740.55 1718.36 9722.12 1794.79 9702.34 1857.53L9711.79 1860.8L9711.88 1860.54L9736.02 1796.51L9736.05 1796.44L9736.08 1796.36L9736.08 1796.35L9736.09 1796.32L9736.12 1796.22L9736.25 1795.85C9736.35 1795.53 9736.51 1795.05 9736.71 1794.43C9737.11 1793.18 9737.69 1791.35 9738.41 1789C9739.84 1784.3 9741.81 1777.5 9744.01 1769.07C9748.39 1752.22 9753.66 1728.83 9757.17 1702.67C9764.15 1650.69 9764.41 1586.39 9735.56 1541.22L9735.3 1540.83L9734.99 1540.49C9710.92 1514.87 9691.81 1499.73 9662.26 1491.93C9633.19 1484.25 9594.29 1483.77 9530.98 1486.08C9450.94 1489 9142.85 1497.39 8846.31 1504.74L8307.34 1518.11L8307.18 1518.12ZM2547.91 1241.63C2520.95 1258.07 2501.09 1272.77 2488.22 1284.79C2481.79 1290.78 2476.95 1296.25 2473.85 1301.05C2470.91 1305.59 2468.8 1310.64 2469.94 1315.32C2471.27 1320.82 2476.19 1323.14 2481.03 1323.79C2485.91 1324.45 2492.25 1323.76 2499.74 1321.98C2514.84 1318.4 2536.32 1309.99 2563.83 1295.95C2620.36 1267.14 2672.75 1253.07 2725.4 1253.48C2778.06 1253.89 2831.36 1268.8 2889.69 1298.54C2918.01 1312.98 2939.92 1323.92 2956.22 1331.44C2964.37 1335.2 2971.18 1338.14 2976.72 1340.23C2982.18 1342.3 2986.71 1343.67 2990.2 1344.11C2991.93 1344.33 2993.82 1344.37 2995.57 1343.89C2997.49 1343.37 2999.47 1342.14 3000.52 1339.83C3001.46 1337.76 3001.27 1335.65 3000.91 1334.1C3000.54 1332.48 2999.83 1330.81 2998.99 1329.17C2995.69 1322.78 2988.35 1313.32 2978.36 1301.29C2931.71 1245.07 2857 1210.13 2777.81 1199.18C2698.59 1188.24 2614.21 1201.21 2547.91 1241.63ZM1269.55 2943.06C1269.55 2945.46 1270.85 2947.46 1271.75 2948.65C1272.81 2950.05 1274.23 2951.51 1275.88 2953C1279.19 2956 1283.92 2959.61 1289.81 2963.7C1301.63 2971.9 1318.62 2982.4 1339.47 2994.46C1381.18 3018.6 1438.66 3049.15 1501.85 3080.31C2615.58 3629.69 3911.1 3812.32 4846.19 3551.2C4934.73 3526.48 5094.48 3462.18 5229.34 3401.57C5296.8 3371.25 5358.18 3341.8 5401.44 3318.59C5423.03 3307.01 5440.27 3296.9 5451.51 3288.98C5457.07 3285.05 5461.48 3281.45 5464.19 3278.29C5465.51 3276.75 5466.79 3274.9 5467.35 3272.84C5468 3270.45 5467.65 3267.66 5465.51 3265.52C5463.89 3263.9 5461.78 3263.52 5460.56 3263.4C5459.14 3263.25 5457.55 3263.32 5455.94 3263.5C5452.68 3263.85 5448.48 3264.74 5443.57 3266.04C5433.69 3268.64 5420.26 3273.07 5404.27 3278.92C5372.26 3290.65 5329.65 3308.24 5284.13 3328.89C4863.71 3519.51 4300.73 3585.37 3696.6 3534.58C3092.54 3483.8 2447.74 3316.44 1863.91 3041.04C1747.64 2986.2 1678.42 2955.5 1619.75 2938.57C1560.86 2921.57 1512.73 2918.48 1438.76 2918.48C1393.47 2918.48 1352.21 2920.69 1322.2 2924.27C1307.23 2926.06 1294.87 2928.2 1286.16 2930.65C1281.84 2931.86 1278.14 2933.22 1275.4 2934.8C1274.03 2935.59 1272.68 2936.57 1271.61 2937.81C1270.52 2939.08 1269.55 2940.86 1269.55 2943.06Z" fill="white" stroke="url(#paint0_linear_70_83)" stroke-width="10"/>
<path d="M0 2534.3H83.6268C105.34 2534.3 124.511 2538.7 141.138 2547.5C157.766 2556.11 170.677 2568.24 179.871 2583.89C189.065 2599.34 193.662 2617.05 193.662 2637C193.662 2656.95 189.065 2674.75 179.871 2690.4C170.677 2705.86 157.766 2717.99 141.138 2726.79C124.511 2735.4 105.34 2739.7 83.6268 2739.7H0V2534.3ZM82.4531 2720.92C100.45 2720.92 116.197 2717.4 129.695 2710.36C143.193 2703.12 153.658 2693.24 161.092 2680.72C168.525 2668 172.242 2653.43 172.242 2637C172.242 2620.57 168.525 2606.09 161.092 2593.57C153.658 2580.86 143.193 2570.98 129.695 2563.94C116.197 2556.7 100.45 2553.08 82.4531 2553.08H21.7136V2720.92H82.4531Z" fill="white"/>
<path d="M388.548 2739.7L341.6 2673.68C336.318 2674.26 330.841 2674.56 325.168 2674.56H270.003V2739.7H248.29V2534.3H325.168C351.381 2534.3 371.921 2540.56 386.788 2553.08C401.655 2565.6 409.088 2582.81 409.088 2604.72C409.088 2620.76 404.98 2634.36 396.764 2645.51C388.744 2656.46 377.202 2664.39 362.14 2669.28L412.316 2739.7H388.548ZM324.581 2656.07C344.925 2656.07 360.477 2651.57 371.236 2642.57C381.995 2633.58 387.374 2620.96 387.374 2604.72C387.374 2588.09 381.995 2575.38 371.236 2566.58C360.477 2557.58 344.925 2553.08 324.581 2553.08H270.003V2656.07H324.581Z" fill="white"/>
<path d="M466.205 2534.3H487.919V2739.7H466.205V2534.3Z" fill="white"/>
<path d="M729.1 2534.3L638.138 2739.7H616.718L525.755 2534.3H549.229L627.868 2712.7L707.093 2534.3H729.1Z" fill="white"/>
<path d="M910.026 2720.92V2739.7H764.779V2534.3H905.624V2553.08H786.493V2626.14H892.713V2644.63H786.493V2720.92H910.026Z" fill="white"/>
<path d="M1138.59 2534.3V2739.7H1120.69L988.648 2573.03V2739.7H966.934V2534.3H984.833L1117.17 2700.97V2534.3H1138.59Z" fill="white"/>
<path d="M1423.56 2633.77C1437.06 2636.71 1447.43 2642.57 1454.67 2651.38C1462.1 2659.98 1465.82 2671.13 1465.82 2684.83C1465.82 2702.43 1459.26 2716.03 1446.16 2725.61C1433.25 2735 1414.08 2739.7 1388.65 2739.7H1294.16V2534.3H1382.78C1405.67 2534.3 1423.37 2538.9 1435.89 2548.09C1448.6 2557.28 1454.96 2570.29 1454.96 2587.12C1454.96 2598.46 1452.12 2608.15 1446.45 2616.17C1440.97 2623.99 1433.35 2629.86 1423.56 2633.77ZM1315.88 2552.2V2626.73H1381.31C1397.94 2626.73 1410.75 2623.6 1419.75 2617.34C1428.75 2610.88 1433.25 2601.59 1433.25 2589.46C1433.25 2577.34 1428.75 2568.14 1419.75 2561.88C1410.75 2555.43 1397.94 2552.2 1381.31 2552.2H1315.88ZM1388.35 2721.8C1406.74 2721.8 1420.63 2718.67 1430.02 2712.41C1439.41 2706.15 1444.1 2696.37 1444.1 2683.07C1444.1 2657.44 1425.52 2644.63 1388.35 2644.63H1315.88V2721.8H1388.35Z" fill="white"/>
<path d="M1587.37 2668.69V2739.7H1565.95V2668.69L1483.79 2534.3H1506.97L1577.4 2649.62L1647.82 2534.3H1669.53L1587.37 2668.69Z" fill="white"/>
<path d="M1791.74 2534.3H1875.37C1897.08 2534.3 1916.25 2538.7 1932.88 2547.5C1949.51 2556.11 1962.42 2568.24 1971.61 2583.89C1980.8 2599.34 1985.4 2617.05 1985.4 2637C1985.4 2656.95 1980.8 2674.75 1971.61 2690.4C1962.42 2705.86 1949.51 2717.99 1932.88 2726.79C1916.25 2735.4 1897.08 2739.7 1875.37 2739.7H1791.74V2534.3ZM1874.19 2720.92C1892.19 2720.92 1907.94 2717.4 1921.43 2710.36C1934.93 2703.12 1945.4 2693.24 1952.83 2680.72C1960.26 2668 1963.98 2653.43 1963.98 2637C1963.98 2620.57 1960.26 2606.09 1952.83 2593.57C1945.4 2580.86 1934.93 2570.98 1921.43 2563.94C1907.94 2556.7 1892.19 2553.08 1874.19 2553.08H1813.45V2720.92H1874.19Z" fill="white"/>
<path d="M2180.29 2739.7L2133.34 2673.68C2128.06 2674.26 2122.58 2674.56 2116.91 2674.56H2061.74V2739.7H2040.03V2534.3H2116.91C2143.12 2534.3 2163.66 2540.56 2178.53 2553.08C2193.39 2565.6 2200.83 2582.81 2200.83 2604.72C2200.83 2620.76 2196.72 2634.36 2188.5 2645.51C2180.48 2656.46 2168.94 2664.39 2153.88 2669.28L2204.06 2739.7H2180.29ZM2116.32 2656.07C2136.67 2656.07 2152.22 2651.57 2162.98 2642.57C2173.73 2633.58 2179.11 2620.96 2179.11 2604.72C2179.11 2588.09 2173.73 2575.38 2162.98 2566.58C2152.22 2557.58 2136.67 2553.08 2116.32 2553.08H2061.74V2656.07H2116.32Z" fill="white"/>
<path d="M2403.19 2720.92V2739.7H2257.95V2534.3H2398.79V2553.08H2279.66V2626.14H2385.88V2644.63H2279.66V2720.92H2403.19Z" fill="white"/>
<path d="M2588.92 2684.83H2474.48L2449.83 2739.7H2427.24L2521.13 2534.3H2542.55L2636.45 2739.7H2613.56L2588.92 2684.83ZM2580.99 2667.22L2531.7 2556.89L2482.4 2667.22H2580.99Z" fill="white"/>
<path d="M2889.62 2534.3V2739.7H2868.79V2575.38L2788.09 2713.58H2777.82L2697.13 2576.26V2739.7H2676.3V2534.3H2694.2L2783.4 2686.59L2871.72 2534.3H2889.62Z" fill="white"/>
<path d="M3019.04 2741.46C3003.78 2741.46 2989.11 2739.01 2975.03 2734.12C2961.14 2729.23 2950.38 2722.78 2942.75 2714.76L2951.26 2698.03C2958.7 2705.47 2968.57 2711.53 2980.9 2716.22C2993.22 2720.72 3005.94 2722.97 3019.04 2722.97C3037.43 2722.97 3051.22 2719.65 3060.42 2713C3069.61 2706.15 3074.21 2697.35 3074.21 2686.59C3074.21 2678.37 3071.66 2671.82 3066.58 2666.93C3061.69 2662.04 3055.62 2658.32 3048.39 2655.78C3041.15 2653.04 3031.07 2650.11 3018.16 2646.98C3002.71 2643.06 2990.39 2639.35 2981.19 2635.83C2972 2632.11 2964.07 2626.53 2957.42 2619.1C2950.97 2611.67 2947.74 2601.59 2947.74 2588.88C2947.74 2578.51 2950.48 2569.12 2955.96 2560.71C2961.43 2552.1 2969.85 2545.25 2981.19 2540.17C2992.54 2535.08 3006.62 2532.54 3023.44 2532.54C3035.18 2532.54 3046.63 2534.2 3057.78 2537.53C3069.12 2540.66 3078.9 2545.06 3087.12 2550.73L3079.78 2568.04C3071.18 2562.37 3061.98 2558.17 3052.2 2555.43C3042.42 2552.49 3032.83 2551.03 3023.44 2551.03C3005.45 2551.03 2991.85 2554.55 2982.66 2561.59C2973.66 2568.44 2969.16 2577.34 2969.16 2588.29C2969.16 2596.51 2971.61 2603.16 2976.5 2608.24C2981.58 2613.13 2987.84 2616.95 2995.28 2619.69C3002.9 2622.23 3013.08 2625.07 3025.79 2628.2C3040.85 2631.91 3052.98 2635.63 3062.18 2639.35C3071.57 2642.87 3079.49 2648.35 3085.94 2655.78C3092.4 2663.02 3095.63 2672.9 3095.63 2685.41C3095.63 2695.78 3092.79 2705.27 3087.12 2713.88C3081.64 2722.29 3073.13 2729.04 3061.59 2734.12C3050.05 2739.01 3035.87 2741.46 3019.04 2741.46Z" fill="white"/>
<path d="M3152.48 2709.18C3156.98 2709.18 3160.7 2710.75 3163.63 2713.88C3166.57 2716.81 3168.04 2720.53 3168.04 2725.03C3168.04 2727.37 3167.64 2729.92 3166.86 2732.66C3166.27 2735.4 3165.3 2738.53 3163.93 2742.05L3151.6 2782.54H3137.52L3147.5 2739.99C3144.37 2739.01 3141.82 2737.25 3139.87 2734.71C3137.91 2731.97 3136.93 2728.74 3136.93 2725.03C3136.93 2720.53 3138.4 2716.81 3141.33 2713.88C3144.27 2710.75 3147.98 2709.18 3152.48 2709.18Z" fill="white"/>
<path d="M3305.25 2534.3H3388.88C3410.59 2534.3 3429.76 2538.7 3446.39 2547.5C3463.02 2556.11 3475.93 2568.24 3485.12 2583.89C3494.32 2599.34 3498.91 2617.05 3498.91 2637C3498.91 2656.95 3494.32 2674.75 3485.12 2690.4C3475.93 2705.86 3463.02 2717.99 3446.39 2726.79C3429.76 2735.4 3410.59 2739.7 3388.88 2739.7H3305.25V2534.3ZM3387.7 2720.92C3405.7 2720.92 3421.45 2717.4 3434.95 2710.36C3448.44 2703.12 3458.91 2693.24 3466.34 2680.72C3473.78 2668 3477.49 2653.43 3477.49 2637C3477.49 2620.57 3473.78 2606.09 3466.34 2593.57C3458.91 2580.86 3448.44 2570.98 3434.95 2563.94C3421.45 2556.7 3405.7 2553.08 3387.7 2553.08H3326.96V2720.92H3387.7Z" fill="white"/>
<path d="M3698.79 2720.92V2739.7H3553.54V2534.3H3694.39V2553.08H3575.26V2626.14H3681.48V2644.63H3575.26V2720.92H3698.79Z" fill="white"/>
<path d="M3755.7 2534.3H3777.41V2720.92H3892.43V2739.7H3755.7V2534.3Z" fill="white"/>
<path d="M3934.35 2534.3H3956.07V2739.7H3934.35V2534.3Z" fill="white"/>
<path d="M4197.25 2534.3L4106.29 2739.7H4084.87L3993.9 2534.3H4017.38L4096.02 2712.7L4175.24 2534.3H4197.25Z" fill="white"/>
<path d="M4378.18 2720.92V2739.7H4232.93V2534.3H4373.77V2553.08H4254.64V2626.14H4360.86V2644.63H4254.64V2720.92H4378.18Z" fill="white"/>
<path d="M4575.34 2739.7L4528.39 2673.68C4523.11 2674.26 4517.63 2674.56 4511.96 2674.56H4456.8V2739.7H4435.08V2534.3H4511.96C4538.17 2534.3 4558.71 2540.56 4573.58 2553.08C4588.45 2565.6 4595.88 2582.81 4595.88 2604.72C4595.88 2620.76 4591.77 2634.36 4583.56 2645.51C4575.54 2656.46 4564 2664.39 4548.93 2669.28L4599.11 2739.7H4575.34ZM4511.38 2656.07C4531.72 2656.07 4547.27 2651.57 4558.03 2642.57C4568.79 2633.58 4574.17 2620.96 4574.17 2604.72C4574.17 2588.09 4568.79 2575.38 4558.03 2566.58C4547.27 2557.58 4531.72 2553.08 4511.38 2553.08H4456.8V2656.07H4511.38Z" fill="white"/>
<path d="M4798.25 2720.92V2739.7H4653V2534.3H4793.84V2553.08H4674.71V2626.14H4780.93V2644.63H4674.71V2720.92H4798.25Z" fill="white"/>
<path d="M4855.15 2534.3H4938.78C4960.5 2534.3 4979.67 2538.7 4996.29 2547.5C5012.92 2556.11 5025.83 2568.24 5035.03 2583.89C5044.22 2599.34 5048.82 2617.05 5048.82 2637C5048.82 2656.95 5044.22 2674.75 5035.03 2690.4C5025.83 2705.86 5012.92 2717.99 4996.29 2726.79C4979.67 2735.4 4960.5 2739.7 4938.78 2739.7H4855.15V2534.3ZM4937.61 2720.92C4955.6 2720.92 4971.35 2717.4 4984.85 2710.36C4998.35 2703.12 5008.81 2693.24 5016.25 2680.72C5023.68 2668 5027.4 2653.43 5027.4 2637C5027.4 2620.57 5023.68 2606.09 5016.25 2593.57C5008.81 2580.86 4998.35 2570.98 4984.85 2563.94C4971.35 2556.7 4955.6 2553.08 4937.61 2553.08H4876.87V2720.92H4937.61Z" fill="white"/>
<path d="M5315.51 2633.77C5329.01 2636.71 5339.38 2642.57 5346.61 2651.38C5354.05 2659.98 5357.76 2671.13 5357.76 2684.83C5357.76 2702.43 5351.21 2716.03 5338.1 2725.61C5325.19 2735 5306.02 2739.7 5280.59 2739.7H5186.11V2534.3H5274.72C5297.61 2534.3 5315.31 2538.9 5327.83 2548.09C5340.55 2557.28 5346.91 2570.29 5346.91 2587.12C5346.91 2598.46 5344.07 2608.15 5338.4 2616.17C5332.92 2623.99 5325.29 2629.86 5315.51 2633.77ZM5207.82 2552.2V2626.73H5273.26C5289.88 2626.73 5302.7 2623.6 5311.7 2617.34C5320.69 2610.88 5325.19 2601.59 5325.19 2589.46C5325.19 2577.34 5320.69 2568.14 5311.7 2561.88C5302.7 2555.43 5289.88 2552.2 5273.26 2552.2H5207.82ZM5280.3 2721.8C5298.69 2721.8 5312.58 2718.67 5321.97 2712.41C5331.36 2706.15 5336.05 2696.37 5336.05 2683.07C5336.05 2657.44 5317.47 2644.63 5280.3 2644.63H5207.82V2721.8H5280.3Z" fill="white"/>
<path d="M5479.32 2668.69V2739.7H5457.9V2668.69L5375.74 2534.3H5398.92L5469.34 2649.62L5539.76 2534.3H5561.48L5479.32 2668.69Z" fill="white"/>
<path d="M5766.43 2741.46C5739.83 2741.46 5719.09 2733.83 5704.23 2718.57C5689.36 2703.31 5681.93 2681.11 5681.93 2651.96V2534.3H5703.64V2651.08C5703.64 2674.95 5709.02 2692.75 5719.78 2704.49C5730.54 2716.22 5746.09 2722.09 5766.43 2722.09C5786.97 2722.09 5802.62 2716.22 5813.38 2704.49C5824.14 2692.75 5829.52 2674.95 5829.52 2651.08V2534.3H5850.65V2651.96C5850.65 2681.11 5843.21 2703.31 5828.35 2718.57C5813.67 2733.83 5793.04 2741.46 5766.43 2741.46Z" fill="white"/>
<path d="M5978.58 2741.46C5963.32 2741.46 5948.65 2739.01 5934.56 2734.12C5920.67 2729.23 5909.92 2722.78 5902.29 2714.76L5910.8 2698.03C5918.23 2705.47 5928.11 2711.53 5940.43 2716.22C5952.76 2720.72 5965.47 2722.97 5978.58 2722.97C5996.97 2722.97 6010.76 2719.65 6019.95 2713C6029.14 2706.15 6033.74 2697.35 6033.74 2686.59C6033.74 2678.37 6031.2 2671.82 6026.11 2666.93C6021.22 2662.04 6015.16 2658.32 6007.92 2655.78C6000.68 2653.04 5990.61 2650.11 5977.7 2646.98C5962.24 2643.06 5949.92 2639.35 5940.73 2635.83C5931.53 2632.11 5923.61 2626.53 5916.96 2619.1C5910.5 2611.67 5907.27 2601.59 5907.27 2588.88C5907.27 2578.51 5910.01 2569.12 5915.49 2560.71C5920.97 2552.1 5929.38 2545.25 5940.73 2540.17C5952.07 2535.08 5966.16 2532.54 5982.98 2532.54C5994.72 2532.54 6006.16 2534.2 6017.31 2537.53C6028.66 2540.66 6038.44 2545.06 6046.65 2550.73L6039.32 2568.04C6030.71 2562.37 6021.52 2558.17 6011.73 2555.43C6001.95 2552.49 5992.37 2551.03 5982.98 2551.03C5964.98 2551.03 5951.39 2554.55 5942.19 2561.59C5933.19 2568.44 5928.69 2577.34 5928.69 2588.29C5928.69 2596.51 5931.14 2603.16 5936.03 2608.24C5941.12 2613.13 5947.38 2616.95 5954.81 2619.69C5962.44 2622.23 5972.61 2625.07 5985.33 2628.2C6000.39 2631.91 6012.52 2635.63 6021.71 2639.35C6031.1 2642.87 6039.02 2648.35 6045.48 2655.78C6051.93 2663.02 6055.16 2672.9 6055.16 2685.41C6055.16 2695.78 6052.33 2705.27 6046.65 2713.88C6041.18 2722.29 6032.67 2729.04 6021.12 2734.12C6009.58 2739.01 5995.4 2741.46 5978.58 2741.46Z" fill="white"/>
<path d="M3539.61 1744.66H3663.33L3613.17 2306.42H3452.67L3484.99 1939.71L3382.45 2306.42H3304.42H3262.07L3221.94 1938.6L3188.5 2306.42H3028L3078.16 1744.66H3200.77H3239.78H3327.83L3362.38 2100.22L3461.59 1744.66H3502.83H3539.61Z" fill="white"/>
<path d="M3382.45 2306.42H3262.07L3221.95 1938.6L3239.78 1744.66H3327.83L3382.45 2306.42Z" fill="url(#paint1_linear_70_83)"/>
<path d="M4233.15 1909.62C4233.15 1828.25 4167.39 1744.66 4074.87 1744.66H3928.86H3879.81H3768.35L3718.2 2306.42H3878.7L3896.53 2104.68H3917.71L4013.57 2306.42H4199.71L4097.16 2091.3C4186.33 2064.55 4233.15 1995.44 4233.15 1909.62ZM4021.37 1866.15C4049.24 1866.15 4072.64 1895.13 4072.64 1919.65C4072.64 1944.17 4052.58 1986.53 4008 1986.53H3907.68L3918.83 1867.26H4021.37V1866.15Z" fill="white"/>
<path d="M4199.71 2307.54H4013.57L3917.71 2105.79H3999.08C4035.86 2105.79 4068.18 2101.33 4096.05 2092.42L4199.71 2307.54Z" fill="url(#paint2_linear_70_83)"/>
<path d="M4333.29 1744.66H4493.83L4443.52 2306.58H4282.98L4333.29 1744.66Z" fill="white"/>
<path d="M4947.44 1744.66H5143.62L4906.2 2042.26L4882.8 2306.42H4721.18L4744.58 2042.26H4742.35L4743.47 2041.14L4553.98 1744.66H4742.35L4833.75 1910.73L4947.44 1744.66Z" fill="white"/>
<path d="M5142.5 1744.66L4905.09 2042.26L4832.64 1910.73L4946.33 1744.66C4947.45 1744.66 5142.5 1744.66 5142.5 1744.66Z" fill="url(#paint3_linear_70_83)"/>
<path d="M5418.13 1744.66H5341.22H5268.77L5048.08 2306.42H5218.61L5254.28 2207.22H5427.05L5444.88 2306.42H5612.07L5491.69 1744.66H5418.13ZM5296.64 2086.84L5367.97 1886.21L5404.75 2086.84H5296.64Z" fill="white"/>
<path d="M5427.05 2207.22H5254.28L5296.64 2086.84H5404.75L5427.05 2207.22Z" fill="url(#paint4_linear_70_83)"/>
<path d="M6424.41 1735.56H6548.13L6497.97 2297.33H6337.47L6369.79 1930.62L6267.24 2297.33H6189.22H6146.87L6106.74 1929.51L6073.3 2297.33H5912.8L5962.95 1735.56H6085.56H6124.57H6212.63L6247.18 2091.12L6346.38 1735.56H6387.62H6424.41Z" fill="white"/>
<path d="M6267.25 2297.33H6146.87L6106.74 1929.51L6124.58 1735.56H6212.63L6267.25 2297.33Z" fill="url(#paint5_linear_70_83)"/>
<path d="M6926.8 1727.54C6762.95 1727.54 6619.17 1856.83 6604.68 2016.22C6603.56 2024.03 6603.56 2030.71 6603.56 2038.52C6602.45 2187.87 6719.48 2304.91 6876.64 2304.91C7040.49 2304.91 7184.28 2175.61 7198.77 2016.22C7212.14 1856.83 7090.65 1727.54 6926.8 1727.54ZM7033.8 2016.22C7026 2108.74 6959.12 2184.53 6885.56 2184.53C6816.45 2184.53 6766.3 2118.77 6766.3 2034.06C6766.3 2032.94 6766.3 2030.71 6766.3 2029.6C6766.3 2028.49 6766.3 2028.49 6766.3 2027.37C6766.3 2024.03 6766.3 2019.57 6767.41 2015.11C6775.21 1922.6 6842.09 1846.8 6915.65 1846.8C6989.22 1846.8 7041.61 1923.71 7033.8 2016.22Z" fill="white"/>
<path d="M6766.3 2035.17L6603.56 2038.52V2037.4C6614.71 1922.6 6729.51 1801.1 6915.65 1847.92C6842.09 1847.92 6776.33 1923.71 6767.41 2016.22C6767.41 2020.68 6767.41 2024.03 6766.3 2028.49C6766.3 2029.6 6766.3 2029.6 6766.3 2030.71C6766.3 2031.83 6766.3 2032.94 6766.3 2035.17Z" fill="url(#paint6_linear_70_83)"/>
<path d="M7581.51 1735.56H7742.02L7730.87 1855.94H7571.48L7532.47 2297.33H7370.85L7409.86 1855.94H7249.36L7260.51 1735.56H7421.01H7581.51Z" fill="white"/>
<path d="M7409.86 1855.94H7570.37L7531.36 2297.33H7370.85L7409.86 1855.94Z" fill="url(#paint7_linear_70_83)"/>
<path d="M8076.77 1727.54C7912.92 1727.54 7769.14 1856.83 7754.65 2016.22C7753.53 2024.03 7753.53 2030.71 7753.53 2038.52C7752.42 2187.87 7869.45 2304.91 8026.61 2304.91C8190.46 2304.91 8334.25 2175.61 8348.74 2016.22C8362.11 1856.83 8240.62 1727.54 8076.77 1727.54ZM8183.77 2016.22C8175.97 2108.74 8109.09 2184.53 8035.53 2184.53C7966.42 2184.53 7916.27 2118.77 7916.27 2034.06C7916.27 2032.94 7916.27 2030.71 7916.27 2029.6C7916.27 2028.49 7916.27 2028.49 7916.27 2027.37C7916.27 2024.03 7916.27 2019.57 7917.38 2015.11C7925.18 1922.6 7992.06 1846.8 8065.62 1846.8C8139.19 1846.8 8191.57 1923.71 8183.77 2016.22Z" fill="white"/>
<path d="M7916.26 2035.17L7753.53 2038.52V2037.4C7764.68 1922.6 7879.48 1801.1 8065.62 1847.92C7992.06 1847.92 7926.3 1923.71 7917.38 2016.22C7917.38 2020.68 7917.38 2024.03 7916.26 2028.49C7916.26 2029.6 7916.26 2029.6 7916.26 2030.71C7916.26 2031.83 7916.26 2032.94 7916.26 2035.17Z" fill="url(#paint8_linear_70_83)"/>
<path d="M8920.48 1900.53C8920.48 1819.16 8854.72 1735.56 8762.21 1735.56H8616.19H8567.15H8455.69L8405.53 2297.33H8566.04L8583.87 2095.58H8605.05L8700.9 2297.33H8887.04L8784.5 2082.21C8873.67 2055.46 8920.48 1986.35 8920.48 1900.53ZM8708.71 1857.06C8736.57 1857.06 8759.98 1886.04 8759.98 1910.56C8759.98 1935.08 8739.92 1977.43 8695.33 1977.43H8595.02L8606.16 1858.17H8708.71V1857.06Z" fill="white"/>
<path d="M8887.04 2298.44H8700.9L8605.05 2096.7H8686.41C8723.2 2096.7 8755.52 2092.24 8783.39 2083.32L8887.04 2298.44Z" fill="url(#paint9_linear_70_83)"/>
<path d="M9176.35 1894.73C9176.35 1963.84 9391.48 1949.35 9391.48 2114.31C9391.48 2292.65 9180.81 2306.02 9132.88 2306.02C9107.25 2306.02 9021.42 2298.22 8967.92 2275.93L8981.3 2122.11C9035.91 2155.55 9089.41 2181.19 9135.11 2181.19C9181.93 2181.19 9198.65 2158.89 9198.65 2141.06C9198.65 2054.12 8990.21 2096.48 8990.21 1915.91C8990.21 1773.24 9148.49 1727.54 9230.97 1727.54C9310.11 1727.54 9345.78 1736.46 9393.7 1748.72L9380.33 1902.53C9380.33 1902.53 9295.62 1852.38 9243.23 1852.38C9203.11 1852.38 9176.35 1869.1 9176.35 1894.73Z" fill="white"/>
<path d="M9355.81 2017.34H9024.77C9024.77 2017.34 8918.88 1852.38 9188.62 1852.38H9243.24C9203.11 1852.38 9176.36 1869.09 9176.36 1894.73C9176.36 1946 9294.51 1951.58 9355.81 2017.34Z" fill="url(#paint10_linear_70_83)"/>
<defs>
<linearGradient id="paint0_linear_70_83" x1="5075.44" y1="10" x2="5075.44" y2="3663.48" gradientUnits="userSpaceOnUse">
<stop stop-color="white"/>
<stop offset="1" stop-color="#999999"/>
</linearGradient>
<linearGradient id="paint1_linear_70_83" x1="3214.63" y1="2018.51" x2="3406.13" y2="2035.27" gradientUnits="userSpaceOnUse">
<stop offset="0.0655" stop-color="#969696" stop-opacity="0.8"/>
<stop offset="0.4267" stop-color="#969696" stop-opacity="0"/>
</linearGradient>
<linearGradient id="paint2_linear_70_83" x1="4058.71" y1="2092.42" x2="4058.71" y2="2307.54" gradientUnits="userSpaceOnUse">
<stop offset="0.2309" stop-color="#969696" stop-opacity="0.8"/>
<stop offset="0.4058" stop-color="#969696" stop-opacity="0.4228"/>
<stop offset="0.6408" stop-color="#969696" stop-opacity="0"/>
</linearGradient>
<linearGradient id="paint3_linear_70_83" x1="4845.81" y1="1939.59" x2="5152.74" y2="1762.38" gradientUnits="userSpaceOnUse">
<stop offset="0.00129" stop-color="#969696" stop-opacity="0.8"/>
<stop offset="0.3725" stop-color="#969696" stop-opacity="0"/>
</linearGradient>
<linearGradient id="paint4_linear_70_83" x1="5167.52" y1="2199.1" x2="5466.45" y2="2119" gradientUnits="userSpaceOnUse">
<stop offset="0.2304" stop-color="#969696" stop-opacity="0.8"/>
<stop offset="0.6213" stop-color="#969696" stop-opacity="0"/>
</linearGradient>
<linearGradient id="paint5_linear_70_83" x1="6099.42" y1="2009.42" x2="6290.93" y2="2026.17" gradientUnits="userSpaceOnUse">
<stop offset="0.0655" stop-color="#969696" stop-opacity="0.8"/>
<stop offset="0.4267" stop-color="#969696" stop-opacity="0"/>
</linearGradient>
<linearGradient id="paint6_linear_70_83" x1="6759.61" y1="1842.18" x2="6759.61" y2="2033.68" gradientUnits="userSpaceOnUse">
<stop offset="0.1417" stop-color="#969696" stop-opacity="0.8"/>
<stop offset="0.4769" stop-color="#969696" stop-opacity="0.4202"/>
<stop offset="0.9802" stop-color="#969696" stop-opacity="0"/>
</linearGradient>
<linearGradient id="paint7_linear_70_83" x1="7470.61" y1="1855.94" x2="7470.61" y2="2297.33" gradientUnits="userSpaceOnUse">
<stop offset="0.06138" stop-color="#969696" stop-opacity="0.8"/>
<stop offset="0.2638" stop-color="#969696" stop-opacity="0"/>
</linearGradient>
<linearGradient id="paint8_linear_70_83" x1="7909.58" y1="1842.18" x2="7909.58" y2="2033.68" gradientUnits="userSpaceOnUse">
<stop offset="0.1417" stop-color="#969696" stop-opacity="0.8"/>
<stop offset="0.4769" stop-color="#969696" stop-opacity="0.4202"/>
<stop offset="0.9802" stop-color="#969696" stop-opacity="0"/>
</linearGradient>
<linearGradient id="paint9_linear_70_83" x1="8746.05" y1="2083.32" x2="8746.05" y2="2298.44" gradientUnits="userSpaceOnUse">
<stop offset="0.2309" stop-color="#969696" stop-opacity="0.8"/>
<stop offset="0.4058" stop-color="#969696" stop-opacity="0.4228"/>
<stop offset="0.6408" stop-color="#969696" stop-opacity="0"/>
</linearGradient>
<linearGradient id="paint10_linear_70_83" x1="9180.05" y1="1852.37" x2="9180.05" y2="2017.89" gradientUnits="userSpaceOnUse">
<stop offset="0.2228" stop-color="#969696" stop-opacity="0.8"/>
<stop offset="0.5404" stop-color="#969696" stop-opacity="0.2925"/>
<stop offset="0.7684" stop-color="#969696" stop-opacity="0"/>
</linearGradient>
</defs>
</svg>
