<svg width="1593" height="245" viewBox="0 0 1593 245" fill="none" xmlns="http://www.w3.org/2000/svg">
<path d="M197 195.348H213.545C217.84 195.348 221.633 196.219 224.923 197.961C228.212 199.663 230.767 202.063 232.585 205.159C234.404 208.216 235.314 211.719 235.314 215.666C235.314 219.614 234.404 223.136 232.585 226.232C230.767 229.289 228.212 231.688 224.923 233.43C221.633 235.133 217.84 235.984 213.545 235.984H197V195.348ZM213.312 232.269C216.873 232.269 219.988 231.572 222.659 230.179C225.329 228.747 227.4 226.793 228.87 224.316C230.341 221.8 231.076 218.917 231.076 215.666C231.076 212.415 230.341 209.552 228.87 207.075C227.4 204.559 225.329 202.605 222.659 201.211C219.988 199.78 216.873 199.064 213.312 199.064H201.296V232.269H213.312Z" fill="white"/>
<path d="M273.87 235.984L264.582 222.923C263.537 223.039 262.453 223.097 261.331 223.097H250.417V235.984H246.121V195.348H261.331C266.517 195.348 270.58 196.587 273.522 199.064C276.463 201.54 277.933 204.946 277.933 209.281C277.933 212.454 277.121 215.144 275.495 217.35C273.909 219.517 271.625 221.084 268.645 222.052L278.572 235.984H273.87ZM261.215 219.44C265.24 219.44 268.316 218.549 270.445 216.769C272.573 214.989 273.638 212.493 273.638 209.281C273.638 205.991 272.573 203.475 270.445 201.734C268.316 199.954 265.24 199.064 261.215 199.064H250.417V219.44H261.215Z" fill="white"/>
<path d="M289.234 195.348H293.529V235.984H289.234V195.348Z" fill="white"/>
<path d="M341.244 195.348L323.248 235.984H319.011L301.015 195.348H305.659L321.217 230.644L336.89 195.348H341.244Z" fill="white"/>
<path d="M377.038 232.269V235.984H348.303V195.348H376.168V199.064H352.599V213.518H373.613V217.176H352.599V232.269H377.038Z" fill="white"/>
<path d="M422.257 195.348V235.984H418.716L392.593 203.011V235.984H388.297V195.348H391.838L418.019 228.321V195.348H422.257Z" fill="white"/>
<path d="M478.636 215.028C481.307 215.608 483.358 216.769 484.79 218.511C486.26 220.214 486.996 222.42 486.996 225.129C486.996 228.612 485.699 231.301 483.106 233.198C480.552 235.055 476.759 235.984 471.728 235.984H453.036V195.348H470.567C475.095 195.348 478.598 196.258 481.074 198.077C483.59 199.896 484.848 202.469 484.848 205.798C484.848 208.042 484.287 209.958 483.164 211.545C482.081 213.093 480.571 214.254 478.636 215.028ZM457.332 198.889V213.634H470.277C473.567 213.634 476.101 213.015 477.882 211.777C479.662 210.5 480.552 208.661 480.552 206.262C480.552 203.863 479.662 202.044 477.882 200.805C476.101 199.528 473.567 198.889 470.277 198.889H457.332ZM471.67 232.443C475.308 232.443 478.056 231.824 479.913 230.585C481.771 229.347 482.7 227.412 482.7 224.78C482.7 219.711 479.023 217.176 471.67 217.176H457.332V232.443H471.67Z" fill="white"/>
<path d="M511.044 221.936V235.984H506.806V221.936L490.552 195.348H495.138L509.07 218.162L523.003 195.348H527.298L511.044 221.936Z" fill="white"/>
<path d="M551.476 195.348H568.02C572.316 195.348 576.109 196.219 579.398 197.961C582.688 199.663 585.242 202.063 587.061 205.159C588.88 208.216 589.79 211.719 589.79 215.666C589.79 219.614 588.88 223.136 587.061 226.232C585.242 229.289 582.688 231.688 579.398 233.43C576.109 235.133 572.316 235.984 568.02 235.984H551.476V195.348ZM567.788 232.269C571.349 232.269 574.464 231.572 577.134 230.179C579.805 228.747 581.875 226.793 583.346 224.316C584.817 221.8 585.552 218.917 585.552 215.666C585.552 212.415 584.817 209.552 583.346 207.075C581.875 204.559 579.805 202.605 577.134 201.211C574.464 199.78 571.349 199.064 567.788 199.064H555.772V232.269H567.788Z" fill="white"/>
<path d="M628.346 235.984L619.057 222.923C618.013 223.039 616.929 223.097 615.807 223.097H604.893V235.984H600.597V195.348H615.807C620.993 195.348 625.056 196.587 627.997 199.064C630.939 201.54 632.409 204.946 632.409 209.281C632.409 212.454 631.597 215.144 629.971 217.35C628.384 219.517 626.101 221.084 623.121 222.052L633.048 235.984H628.346ZM615.69 219.44C619.715 219.44 622.792 218.549 624.921 216.769C627.049 214.989 628.113 212.493 628.113 209.281C628.113 205.991 627.049 203.475 624.921 201.734C622.792 199.954 619.715 199.064 615.69 199.064H604.893V219.44H615.69Z" fill="white"/>
<path d="M672.445 232.269V235.984H643.709V195.348H671.574V199.064H648.005V213.518H669.02V217.176H648.005V232.269H672.445Z" fill="white"/>
<path d="M709.188 225.129H686.548L681.672 235.984H677.202L695.778 195.348H700.016L718.592 235.984H714.064L709.188 225.129ZM707.621 221.646L697.868 199.818L688.115 221.646H707.621Z" fill="white"/>
<path d="M768.679 195.348V235.984H764.557V203.476L748.593 230.818H746.561L730.597 203.65V235.984H726.476V195.348H730.017L747.664 225.477L765.138 195.348H768.679Z" fill="white"/>
<path d="M794.284 236.333C791.265 236.333 788.363 235.849 785.576 234.881C782.829 233.914 780.7 232.637 779.191 231.05L780.874 227.741C782.345 229.212 784.299 230.411 786.737 231.34C789.175 232.23 791.691 232.675 794.284 232.675C797.922 232.675 800.65 232.017 802.469 230.702C804.288 229.347 805.198 227.605 805.198 225.477C805.198 223.852 804.695 222.555 803.688 221.588C802.721 220.62 801.521 219.885 800.089 219.382C798.657 218.84 796.664 218.259 794.11 217.64C791.052 216.866 788.614 216.131 786.795 215.434C784.976 214.699 783.409 213.596 782.093 212.125C780.816 210.655 780.177 208.661 780.177 206.146C780.177 204.095 780.719 202.237 781.803 200.573C782.887 198.87 784.551 197.516 786.795 196.509C789.04 195.503 791.827 195 795.155 195C797.477 195 799.741 195.329 801.947 195.987C804.191 196.606 806.126 197.477 807.752 198.599L806.301 202.024C804.598 200.902 802.779 200.07 800.844 199.528C798.909 198.948 797.012 198.657 795.155 198.657C791.594 198.657 788.905 199.354 787.086 200.747C785.305 202.102 784.415 203.863 784.415 206.03C784.415 207.655 784.899 208.971 785.867 209.977C786.873 210.945 788.111 211.699 789.582 212.241C791.091 212.744 793.104 213.306 795.619 213.925C798.599 214.66 800.999 215.395 802.818 216.131C804.675 216.827 806.243 217.911 807.52 219.382C808.797 220.813 809.435 222.768 809.435 225.245C809.435 227.296 808.874 229.173 807.752 230.876C806.668 232.54 804.985 233.875 802.701 234.881C800.418 235.849 797.612 236.333 794.284 236.333Z" fill="white"/>
<path d="M820.684 229.947C821.574 229.947 822.309 230.257 822.89 230.876C823.47 231.456 823.76 232.192 823.76 233.082C823.76 233.546 823.683 234.049 823.528 234.591C823.412 235.133 823.219 235.752 822.948 236.449L820.51 244.46H817.723L819.697 236.042C819.078 235.849 818.575 235.5 818.188 234.997C817.8 234.456 817.607 233.817 817.607 233.082C817.607 232.192 817.897 231.456 818.478 230.876C819.058 230.257 819.794 229.947 820.684 229.947Z" fill="white"/>
<path d="M850.907 195.348H867.452C871.748 195.348 875.54 196.219 878.83 197.961C882.119 199.663 884.674 202.063 886.493 205.159C888.311 208.216 889.221 211.719 889.221 215.666C889.221 219.614 888.311 223.136 886.493 226.232C884.674 229.289 882.119 231.688 878.83 233.43C875.54 235.133 871.748 235.984 867.452 235.984H850.907V195.348ZM867.22 232.269C870.78 232.269 873.895 231.572 876.566 230.179C879.236 228.747 881.307 226.793 882.777 224.316C884.248 221.8 884.983 218.917 884.983 215.666C884.983 212.415 884.248 209.552 882.777 207.075C881.307 204.559 879.236 202.605 876.566 201.211C873.895 199.78 870.78 199.064 867.22 199.064H855.203V232.269H867.22Z" fill="white"/>
<path d="M928.764 232.269V235.984H900.029V195.348H927.893V199.064H904.324V213.518H925.339V217.176H904.324V232.269H928.764Z" fill="white"/>
<path d="M940.023 195.348H944.318V232.269H967.075V235.984H940.023V195.348Z" fill="white"/>
<path d="M975.368 195.348H979.664V235.984H975.368V195.348Z" fill="white"/>
<path d="M1027.38 195.348L1009.38 235.984H1005.15L987.149 195.348H991.794L1007.35 230.644L1023.03 195.348H1027.38Z" fill="white"/>
<path d="M1063.17 232.269V235.984H1034.44V195.348H1062.3V199.064H1038.73V213.518H1059.75V217.176H1038.73V232.269H1063.17Z" fill="white"/>
<path d="M1102.18 235.984L1092.89 222.923C1091.85 223.039 1090.76 223.097 1089.64 223.097H1078.73V235.984H1074.43V195.348H1089.64C1094.83 195.348 1098.89 196.587 1101.83 199.064C1104.77 201.54 1106.24 204.946 1106.24 209.281C1106.24 212.454 1105.43 215.144 1103.81 217.35C1102.22 219.517 1099.94 221.084 1096.96 222.052L1106.88 235.984H1102.18ZM1089.53 219.44C1093.55 219.44 1096.63 218.549 1098.76 216.769C1100.88 214.989 1101.95 212.493 1101.95 209.281C1101.95 205.991 1100.88 203.475 1098.76 201.734C1096.63 199.954 1093.55 199.064 1089.53 199.064H1078.73V219.44H1089.53Z" fill="white"/>
<path d="M1146.28 232.269V235.984H1117.54V195.348H1145.41V199.064H1121.84V213.518H1142.85V217.176H1121.84V232.269H1146.28Z" fill="white"/>
<path d="M1157.54 195.348H1174.08C1178.38 195.348 1182.17 196.219 1185.46 197.961C1188.75 199.663 1191.3 202.063 1193.12 205.159C1194.94 208.216 1195.85 211.719 1195.85 215.666C1195.85 219.614 1194.94 223.136 1193.12 226.232C1191.3 229.289 1188.75 231.688 1185.46 233.43C1182.17 235.133 1178.38 235.984 1174.08 235.984H1157.54V195.348ZM1173.85 232.269C1177.41 232.269 1180.53 231.572 1183.2 230.179C1185.87 228.747 1187.94 226.793 1189.41 224.316C1190.88 221.8 1191.61 218.917 1191.61 215.666C1191.61 212.415 1190.88 209.552 1189.41 207.075C1187.94 204.559 1185.87 202.605 1183.2 201.211C1180.53 199.78 1177.41 199.064 1173.85 199.064H1161.83V232.269H1173.85Z" fill="white"/>
<path d="M1248.61 215.028C1251.28 215.608 1253.34 216.769 1254.77 218.511C1256.24 220.214 1256.97 222.42 1256.97 225.129C1256.97 228.612 1255.68 231.301 1253.08 233.198C1250.53 235.055 1246.74 235.984 1241.71 235.984H1223.01V195.348H1240.55C1245.07 195.348 1248.58 196.258 1251.05 198.077C1253.57 199.896 1254.83 202.469 1254.83 205.798C1254.83 208.042 1254.26 209.958 1253.14 211.545C1252.06 213.093 1250.55 214.254 1248.61 215.028ZM1227.31 198.889V213.634H1240.26C1243.54 213.634 1246.08 213.015 1247.86 211.777C1249.64 210.5 1250.53 208.661 1250.53 206.262C1250.53 203.863 1249.64 202.044 1247.86 200.805C1246.08 199.528 1243.54 198.889 1240.26 198.889H1227.31ZM1241.65 232.443C1245.29 232.443 1248.03 231.824 1249.89 230.585C1251.75 229.347 1252.68 227.412 1252.68 224.78C1252.68 219.711 1249 217.176 1241.65 217.176H1227.31V232.443H1241.65Z" fill="white"/>
<path d="M1281.02 221.936V235.984H1276.78V221.936L1260.53 195.348H1265.12L1279.05 218.162L1292.98 195.348H1297.28L1281.02 221.936Z" fill="white"/>
<path d="M1337.82 236.333C1332.56 236.333 1328.46 234.823 1325.52 231.805C1322.58 228.786 1321.11 224.393 1321.11 218.627V195.348H1325.4V218.453C1325.4 223.174 1326.47 226.696 1328.59 229.018C1330.72 231.34 1333.8 232.501 1337.82 232.501C1341.89 232.501 1344.98 231.34 1347.11 229.018C1349.24 226.696 1350.31 223.174 1350.31 218.453V195.348H1354.48V218.627C1354.48 224.393 1353.01 228.786 1350.07 231.805C1347.17 234.823 1343.09 236.333 1337.82 236.333Z" fill="white"/>
<path d="M1379.79 236.333C1376.78 236.333 1373.87 235.849 1371.09 234.881C1368.34 233.914 1366.21 232.637 1364.7 231.05L1366.39 227.741C1367.86 229.212 1369.81 230.411 1372.25 231.34C1374.69 232.23 1377.2 232.675 1379.79 232.675C1383.43 232.675 1386.16 232.017 1387.98 230.702C1389.8 229.347 1390.71 227.605 1390.71 225.477C1390.71 223.852 1390.21 222.555 1389.2 221.588C1388.23 220.62 1387.03 219.885 1385.6 219.382C1384.17 218.84 1382.17 218.259 1379.62 217.64C1376.56 216.866 1374.13 216.131 1372.31 215.434C1370.49 214.699 1368.92 213.596 1367.6 212.125C1366.33 210.655 1365.69 208.661 1365.69 206.146C1365.69 204.095 1366.23 202.237 1367.31 200.573C1368.4 198.87 1370.06 197.516 1372.31 196.509C1374.55 195.503 1377.34 195 1380.67 195C1382.99 195 1385.25 195.329 1387.46 195.987C1389.7 196.606 1391.64 197.477 1393.26 198.599L1391.81 202.024C1390.11 200.902 1388.29 200.07 1386.35 199.528C1384.42 198.948 1382.52 198.657 1380.67 198.657C1377.11 198.657 1374.42 199.354 1372.6 200.747C1370.82 202.102 1369.93 203.863 1369.93 206.03C1369.93 207.655 1370.41 208.971 1371.38 209.977C1372.38 210.945 1373.62 211.699 1375.09 212.241C1376.6 212.744 1378.61 213.306 1381.13 213.925C1384.11 214.66 1386.51 215.395 1388.33 216.131C1390.19 216.827 1391.75 217.911 1393.03 219.382C1394.31 220.813 1394.95 222.768 1394.95 225.245C1394.95 227.296 1394.39 229.173 1393.26 230.876C1392.18 232.54 1390.5 233.875 1388.21 234.881C1385.93 235.849 1383.12 236.333 1379.79 236.333Z" fill="white"/>
<path d="M301.42 45.5409C301.42 25.1902 284.972 4.282 261.833 4.282H185.17L172.625 144.785H212.769L217.229 94.3267H222.526L246.501 144.785H293.056L267.409 90.9814C289.711 84.2908 301.42 67.0066 301.42 45.5409ZM248.452 34.6686C255.422 34.6686 261.276 41.9168 261.276 48.0499C261.276 54.1829 256.258 64.7764 245.107 64.7764H220.017L222.805 34.9474H248.452V34.6686Z" fill="white"/>
<path d="M293.056 145.064H246.501L222.526 94.6055H242.877C252.076 94.6055 260.161 93.4904 267.13 91.2602L293.056 145.064Z" fill="white"/>
<path d="M326.47 4.282H366.622L354.039 144.824H313.886L326.47 4.282Z" fill="white"/>
<path d="M480.073 4.282H529.138L469.759 78.7152L463.904 144.785H423.482L429.336 78.7152H428.778L429.057 78.4364L381.665 4.282H428.778L451.638 45.8196L480.073 4.282Z" fill="white"/>
<path d="M528.859 4.282L469.48 78.7152L451.359 45.8196L479.795 4.282C480.073 4.282 528.859 4.282 528.859 4.282Z" fill="white"/>
<path d="M560.439 4.282L505.241 144.785H547.894L556.815 119.974H600.025L604.486 144.785H646.302L616.194 4.282H560.439ZM567.408 89.8663L585.25 39.6866L594.45 89.8663H567.408Z" fill="white"/>
<path d="M600.025 119.974H556.815L567.408 89.8663H594.45L600.025 119.974Z" fill="white"/>
<path d="M880.421 2.00719L867.876 142.51H827.732L835.817 50.793L810.169 142.51H780.062L770.026 50.5142L761.662 142.51H721.519L734.063 2.00719H774.486H796.509L805.151 90.9368L829.962 2.00719H880.421Z" fill="white"/>
<path d="M810.169 142.51H780.062L770.026 50.5142L774.486 2.00719H796.509L810.169 142.51Z" fill="white"/>
<path d="M975.129 0C934.149 0 898.187 32.338 894.562 72.203C894.284 74.1545 894.284 75.8271 894.284 77.7786C894.005 115.135 923.276 144.406 962.584 144.406C1003.56 144.406 1039.53 112.068 1043.15 72.203C1046.5 32.338 1016.11 0 975.129 0ZM1001.89 72.203C999.94 95.3415 983.213 114.298 964.814 114.298C947.53 114.298 934.985 97.8504 934.985 76.6634C934.985 76.3847 934.985 75.8271 934.985 75.5483C934.985 75.2696 934.985 75.2696 934.985 74.9908C934.985 74.1545 934.985 73.0394 935.264 71.9243C937.215 48.7858 953.942 29.8291 972.341 29.8291C990.74 29.8291 1003.84 49.0646 1001.89 72.203Z" fill="white"/>
<path d="M934.985 76.9422L894.284 77.7786V77.4998C897.071 48.7858 925.785 18.3992 972.341 30.1078C953.942 30.1078 937.494 49.0646 935.264 72.203C935.264 73.3181 935.264 74.1545 934.985 75.2696C934.985 75.5484 934.985 75.5484 934.985 75.8271C934.985 76.1059 934.985 76.3847 934.985 76.9422Z" fill="white"/>
<path d="M1179.03 2.00719L1176.24 32.115H1136.37L1126.62 142.51H1086.19L1095.95 32.115H1055.81L1058.6 2.00719H1179.03Z" fill="white"/>
<path d="M1095.95 32.115L1136.09 32.115L1126.34 142.51L1086.19 142.51L1095.95 32.115Z" fill="white"/>
<path d="M1473.77 43.2661C1473.77 22.9154 1457.32 2.00719 1434.18 2.00719H1357.52L1344.97 142.51H1385.12L1389.58 92.0519H1394.88L1418.85 142.51H1465.41L1439.76 88.7066C1462.06 82.016 1473.77 64.7318 1473.77 43.2661ZM1420.8 32.3938C1427.77 32.3938 1433.63 39.642 1433.63 45.7751C1433.63 51.9081 1428.61 62.5016 1417.46 62.5016H1392.37L1395.15 32.6726H1420.8V32.3938Z" fill="white"/>
<path d="M1465.41 142.789H1418.85L1394.88 92.3307H1415.23C1424.43 92.3307 1432.51 91.2156 1439.48 88.9854L1465.41 142.789Z" fill="white"/>
<path d="M1537.77 41.8164C1537.77 59.1005 1591.57 55.4765 1591.57 96.7353C1591.57 141.34 1538.88 144.685 1526.89 144.685C1520.48 144.685 1499.02 142.733 1485.63 137.158L1488.98 98.6868C1502.64 107.05 1516.02 113.462 1527.45 113.462C1539.16 113.462 1543.34 107.886 1543.34 103.426C1543.34 81.6814 1491.21 92.2749 1491.21 47.1132C1491.21 11.4298 1530.8 0 1551.43 0C1571.22 0 1580.14 2.23021 1592.13 5.29675L1588.78 43.7679C1588.78 43.7679 1567.59 31.2229 1554.49 31.2229C1544.46 31.2229 1537.77 35.4046 1537.77 41.8164Z" fill="white"/>
<path d="M1582.65 72.4818H1499.85C1499.85 72.4818 1473.37 31.2229 1540.83 31.2229L1554.49 31.2229C1544.46 31.2229 1537.77 35.4046 1537.77 41.8164C1537.77 54.6401 1567.32 56.034 1582.65 72.4818Z" fill="white"/>
<path d="M158.902 4L146.357 144.503H106.214L114.298 52.7858L88.6508 144.503H58.543L48.507 52.507L40.1437 144.503H0L12.5449 4H52.9675H74.9908L83.6328 92.9296L108.444 4H158.902Z" fill="white"/>
<path d="M88.6508 144.503H58.543L48.507 52.507L52.9675 4H74.9908L88.6508 144.503Z" fill="white"/>
<path d="M1263.85 0C1222.87 0 1186.9 32.338 1183.28 72.203C1183 74.1545 1183 75.8271 1183 77.7786C1182.72 115.135 1211.99 144.406 1251.3 144.406C1292.28 144.406 1328.24 112.068 1331.87 72.203C1335.21 32.338 1304.83 0 1263.85 0ZM1290.61 72.203C1288.66 95.3415 1271.93 114.298 1253.53 114.298C1236.25 114.298 1223.7 97.8504 1223.7 76.6634C1223.7 76.3847 1223.7 75.8271 1223.7 75.5483C1223.7 75.2696 1223.7 75.2696 1223.7 74.9908C1223.7 74.1545 1223.7 73.0394 1223.98 71.9243C1225.93 48.7858 1242.66 29.8291 1261.06 29.8291C1279.46 29.8291 1292.56 49.0646 1290.61 72.203Z" fill="white"/>
<path d="M1223.7 76.9422L1183 77.7786V77.4998C1185.79 48.7858 1214.5 18.3992 1261.06 30.1078C1242.66 30.1078 1226.21 49.0646 1223.98 72.203C1223.98 73.3181 1223.98 74.1545 1223.7 75.2696C1223.7 75.5484 1223.7 75.5484 1223.7 75.8271C1223.7 76.1059 1223.7 76.3847 1223.7 76.9422Z" fill="white"/>
</svg>
