<svg xmlns="http://www.w3.org/2000/svg" xmlns:xlink="http://www.w3.org/1999/xlink" version="1.1" id="Layer_21" x="0px" y="0px" viewBox="0 0 18 18" style="enable-background:new 0 0 18 18;" xml:space="preserve">
<style type="text/css">
	.st0{fill:#FFFFFF;}
</style>
<path class="st0" d="M12.5,0h-7C2.5,0,0,2.5,0,5.5v7c0,3,2.5,5.5,5.5,5.5h7c3,0,5.5-2.5,5.5-5.5v-7C18,2.5,15.5,0,12.5,0z   M16.5,12.5c0,2.2-1.8,4-4,4h-7c-2.2,0-4-1.8-4-4v-7c0-2.2,1.8-4,4-4h7c2.2,0,4,1.8,4,4V12.5z"/>
<path class="st0" d="M9,4.5c-2.5,0-4.5,2-4.5,4.5s2,4.5,4.5,4.5s4.5-2,4.5-4.5S11.5,4.5,9,4.5z M9,12c-1.7,0-3-1.3-3-3s1.3-3,3-3  s3,1.3,3,3C12,10.7,10.7,12,9,12z"/>
<circle class="st0" cx="13.7" cy="4.3" r="1"/>
</svg>