<svg xmlns="http://www.w3.org/2000/svg" xmlns:xlink="http://www.w3.org/1999/xlink" fill="#fff" version="1.1" id="Слой_1" x="0px" y="0px" viewBox="0 0 53.8 53.8" style="enable-background:new 0 0 53.8 53.8;" xml:space="preserve">
<path d="M1,53.8c-0.6,0-1-0.4-1-1c0-0.1,0-0.2,0.1-0.3L4,40.9C-2.4,30.3-0.7,16.6,8,7.8c10.5-10.5,27.5-10.5,38,0l0,0  c10.4,10.6,10.3,27.7-0.3,38.1c-8.1,8-20.3,10-30.5,5.1l-14,2.8H1z M15.4,49c0.2,0,0.3,0,0.5,0.1c12.3,6.1,27.3,1.1,33.4-11.2  c4.8-9.6,2.9-21.1-4.6-28.7l0,0c-9.7-9.7-25.5-9.7-35.3,0c0,0,0,0,0,0c-8.2,8.3-9.6,21.1-3.4,31c0.2,0.3,0.2,0.6,0.1,0.9L2.5,51.6  L15.2,49L15.4,49z"/>
<path d="M34.2,40.8c-0.3,0-0.6,0-0.9,0c-5.3-0.6-12-5.8-13.9-7.7l0,0c-1.9-1.8-7.1-8.6-7.7-13.9c-0.5-4.2,2.4-7.1,3.6-8.2  c0.6-0.5,1.3-0.7,2-0.7l2.7,0.1c0.4,0,0.8,0.3,0.9,0.7c0.6,1.6,2.5,6.9,2.5,8.3c0,1.2-1.1,2.1-2,3c-0.2,0.2-0.5,0.4-0.6,0.6  c1,1.8,2.2,3.6,3.6,5.2c1.6,1.4,3.3,2.6,5.2,3.6c0.2-0.2,0.4-0.4,0.6-0.6c0.8-0.9,1.8-2,3-2c1.4,0,6.7,1.9,8.2,2.5  c0.4,0.1,0.6,0.5,0.7,0.9l0.1,2.7c0,0.7-0.2,1.4-0.7,2C39.7,39.4,37,40.7,34.2,40.8z M20.8,31.7c1.6,1.6,8,6.6,12.7,7.1  c3.3,0.3,5.6-1.9,6.4-2.9c0.1-0.2,0.2-0.4,0.2-0.7l-0.1-2c-2.2-0.9-4.6-1.6-6.9-2.2c-0.3,0-1.1,0.9-1.5,1.3c-0.7,0.8-1.2,1.4-2,1.4  c-1.3,0-5.7-3.3-6.7-4.3s-4.2-5.5-4.2-6.7c0-0.8,0.6-1.3,1.4-2c0.4-0.3,1.3-1.1,1.3-1.5c-0.5-2.4-1.3-4.7-2.2-6.9l-2-0.1  c-0.2,0-0.5,0.1-0.7,0.2c-1,0.8-3.3,3.1-2.9,6.4C14.2,23.8,19.2,30,20.8,31.7L20.8,31.7z"/>
</svg>